; Drill file
; Format: 2.4 (00.0000)
M48
INCH
T01C0.0197
T02C0.0315
T03C0.0354
T04C0.0591
T05C0.1181
%
G05
G90
T01
X005150Y036000
X006150Y036000
T02
X010500Y022400
X011000Y022900
X011500Y022400
X011500Y025400
X011000Y025900
X010500Y025400
X010500Y028400
X011000Y028900
X011500Y028400
X011500Y031400
X011000Y031900
X010500Y031400
X010500Y034400
X011000Y034900
X011500Y034400
T03
X007130Y022390
X008130Y022390
X008130Y025390
X007130Y025390
X007130Y028390
X008130Y028390
X008130Y031390
X007130Y031390
X007130Y034390
X008130Y034390
X016000Y033400
X017000Y033400
X017990Y031010
X017990Y028010
X018000Y026500
X018000Y025500
X018000Y024500
X018000Y023500
X018000Y022500
X015000Y022500
X015000Y023500
X015000Y024500
X015000Y025500
X015000Y026500
T04
X005000Y017350
X006000Y017350
X007500Y017350
X009000Y017350
X010500Y017350
X013500Y017350
X016000Y017350
X018000Y017350
T05
X003400Y017000
X019400Y017000
X019400Y036000
X003400Y036000
M30
