%FSLAX34Y34*%
%MOMM*%
%LNCOPPER_BOTTOM*%
G71*
G01*
%ADD10C, 0.15*%
%ADD11C, 0.32*%
%ADD12C, 0.16*%
%ADD13C, 0.10*%
%ADD14C, 0.09*%
%ADD15C, 0.11*%
%ADD16C, 0.24*%
%ADD17C, 0.16*%
%ADD18C, 0.22*%
%ADD19C, 0.16*%
%LPD*%
G54D10*
G75*
G01X216327Y583345D02*
G03X216327Y553956I-20225J-14695D01*
G01*
G54D10*
X216302Y554350D02*
X216302Y582950D01*
G54D11*
X106183Y562482D02*
X95516Y562482D01*
X95516Y563594D01*
X96849Y565816D01*
X104849Y572482D01*
X106183Y574705D01*
X106183Y576927D01*
X104849Y579149D01*
X102183Y580260D01*
X99516Y580260D01*
X96849Y579149D01*
X95516Y576927D01*
G54D11*
X123072Y580260D02*
X112405Y580260D01*
X112405Y572482D01*
X113738Y572482D01*
X116405Y573594D01*
X119072Y573594D01*
X121738Y572482D01*
X123072Y570260D01*
X123072Y565816D01*
X121738Y563594D01*
X119072Y562482D01*
X116405Y562482D01*
X113738Y563594D01*
X112405Y565816D01*
G54D11*
X131961Y562482D02*
X142627Y580260D01*
G54D11*
X143961Y568038D02*
X141294Y568038D01*
X139961Y566927D01*
X139961Y564705D01*
X141294Y563594D01*
X143961Y563594D01*
X145294Y564705D01*
X145294Y566927D01*
X143961Y568038D01*
G54D11*
X133294Y579149D02*
X130627Y579149D01*
X129294Y578038D01*
X129294Y575816D01*
X130627Y574705D01*
X133294Y574705D01*
X134627Y575816D01*
X134627Y578038D01*
X133294Y579149D01*
G54D10*
X400100Y663600D02*
X400100Y682600D01*
X438100Y682600D01*
X438100Y663600D01*
X400100Y663600D01*
G54D10*
X400000Y673100D02*
X392100Y673100D01*
G54D10*
X438100Y673100D02*
X446000Y673100D01*
G54D12*
X408148Y676059D02*
X408815Y677170D01*
X410148Y677726D01*
X411481Y677726D01*
X412815Y677170D01*
X413481Y676059D01*
X413481Y674948D01*
X412815Y673837D01*
X411481Y673282D01*
X412815Y672726D01*
X413481Y671615D01*
X413481Y670504D01*
X412815Y669393D01*
X411481Y668837D01*
X410148Y668837D01*
X408815Y669393D01*
X408148Y670504D01*
G54D12*
X416592Y676059D02*
X417259Y677170D01*
X418592Y677726D01*
X419925Y677726D01*
X421259Y677170D01*
X421925Y676059D01*
X421925Y674948D01*
X421259Y673837D01*
X419925Y673282D01*
X421259Y672726D01*
X421925Y671615D01*
X421925Y670504D01*
X421259Y669393D01*
X419925Y668837D01*
X418592Y668837D01*
X417259Y669393D01*
X416592Y670504D01*
G54D12*
X430369Y676059D02*
X430369Y670504D01*
X429703Y669393D01*
X428369Y668837D01*
X427036Y668837D01*
X425703Y669393D01*
X425036Y670504D01*
X425036Y676059D01*
X425703Y677170D01*
X427036Y677726D01*
X428369Y677726D01*
X429703Y677170D01*
X430369Y676059D01*
G54D10*
X447551Y768472D02*
X466551Y768472D01*
X466551Y730472D01*
X447551Y730472D01*
X447551Y768472D01*
G54D10*
X457051Y768572D02*
X457051Y776472D01*
G54D10*
X457051Y730472D02*
X457051Y722572D01*
G54D12*
X454511Y738099D02*
X453400Y738766D01*
X452844Y740099D01*
X452844Y741432D01*
X453400Y742766D01*
X454511Y743432D01*
X455622Y743432D01*
X456733Y742766D01*
X457289Y741432D01*
X457844Y742766D01*
X458955Y743432D01*
X460066Y743432D01*
X461178Y742766D01*
X461733Y741432D01*
X461733Y740099D01*
X461178Y738766D01*
X460066Y738099D01*
G54D12*
X454511Y746543D02*
X453400Y747210D01*
X452844Y748543D01*
X452844Y749876D01*
X453400Y751210D01*
X454511Y751876D01*
X455622Y751876D01*
X456733Y751210D01*
X457289Y749876D01*
X457844Y751210D01*
X458955Y751876D01*
X460066Y751876D01*
X461178Y751210D01*
X461733Y749876D01*
X461733Y748543D01*
X461178Y747210D01*
X460066Y746543D01*
G54D12*
X454511Y760320D02*
X460066Y760320D01*
X461178Y759654D01*
X461733Y758320D01*
X461733Y756987D01*
X461178Y755654D01*
X460066Y754987D01*
X454511Y754987D01*
X453400Y755654D01*
X452844Y756987D01*
X452844Y758320D01*
X453400Y759654D01*
X454511Y760320D01*
G54D10*
X400100Y638200D02*
X400100Y657200D01*
X438100Y657200D01*
X438100Y638200D01*
X400100Y638200D01*
G54D10*
X400000Y647700D02*
X392100Y647700D01*
G54D10*
X438100Y647700D02*
X446000Y647700D01*
G54D12*
X408148Y650659D02*
X408815Y651770D01*
X410148Y652326D01*
X411481Y652326D01*
X412815Y651770D01*
X413481Y650659D01*
X413481Y649548D01*
X412815Y648437D01*
X411481Y647882D01*
X412815Y647326D01*
X413481Y646215D01*
X413481Y645104D01*
X412815Y643993D01*
X411481Y643437D01*
X410148Y643437D01*
X408815Y643993D01*
X408148Y645104D01*
G54D12*
X416592Y650659D02*
X417259Y651770D01*
X418592Y652326D01*
X419925Y652326D01*
X421259Y651770D01*
X421925Y650659D01*
X421925Y649548D01*
X421259Y648437D01*
X419925Y647882D01*
X421259Y647326D01*
X421925Y646215D01*
X421925Y645104D01*
X421259Y643993D01*
X419925Y643437D01*
X418592Y643437D01*
X417259Y643993D01*
X416592Y645104D01*
G54D12*
X430369Y650659D02*
X430369Y645104D01*
X429703Y643993D01*
X428369Y643437D01*
X427036Y643437D01*
X425703Y643993D01*
X425036Y645104D01*
X425036Y650659D01*
X425703Y651770D01*
X427036Y652326D01*
X428369Y652326D01*
X429703Y651770D01*
X430369Y650659D01*
G54D10*
X400100Y612800D02*
X400100Y631800D01*
X438100Y631800D01*
X438100Y612800D01*
X400100Y612800D01*
G54D10*
X400000Y622300D02*
X392100Y622300D01*
G54D10*
X438100Y622300D02*
X446000Y622300D01*
G54D12*
X408148Y625259D02*
X408815Y626370D01*
X410148Y626926D01*
X411481Y626926D01*
X412815Y626370D01*
X413481Y625259D01*
X413481Y624148D01*
X412815Y623037D01*
X411481Y622482D01*
X412815Y621926D01*
X413481Y620815D01*
X413481Y619704D01*
X412815Y618593D01*
X411481Y618037D01*
X410148Y618037D01*
X408815Y618593D01*
X408148Y619704D01*
G54D12*
X416592Y625259D02*
X417259Y626370D01*
X418592Y626926D01*
X419925Y626926D01*
X421259Y626370D01*
X421925Y625259D01*
X421925Y624148D01*
X421259Y623037D01*
X419925Y622482D01*
X421259Y621926D01*
X421925Y620815D01*
X421925Y619704D01*
X421259Y618593D01*
X419925Y618037D01*
X418592Y618037D01*
X417259Y618593D01*
X416592Y619704D01*
G54D12*
X430369Y625259D02*
X430369Y619704D01*
X429703Y618593D01*
X428369Y618037D01*
X427036Y618037D01*
X425703Y618593D01*
X425036Y619704D01*
X425036Y625259D01*
X425703Y626370D01*
X427036Y626926D01*
X428369Y626926D01*
X429703Y626370D01*
X430369Y625259D01*
G54D10*
X400100Y587400D02*
X400100Y606400D01*
X438100Y606400D01*
X438100Y587400D01*
X400100Y587400D01*
G54D10*
X400000Y596900D02*
X392100Y596900D01*
G54D10*
X438100Y596900D02*
X446000Y596900D01*
G54D12*
X408148Y599859D02*
X408815Y600970D01*
X410148Y601526D01*
X411481Y601526D01*
X412815Y600970D01*
X413481Y599859D01*
X413481Y598748D01*
X412815Y597637D01*
X411481Y597082D01*
X412815Y596526D01*
X413481Y595415D01*
X413481Y594304D01*
X412815Y593193D01*
X411481Y592637D01*
X410148Y592637D01*
X408815Y593193D01*
X408148Y594304D01*
G54D12*
X416592Y599859D02*
X417259Y600970D01*
X418592Y601526D01*
X419925Y601526D01*
X421259Y600970D01*
X421925Y599859D01*
X421925Y598748D01*
X421259Y597637D01*
X419925Y597082D01*
X421259Y596526D01*
X421925Y595415D01*
X421925Y594304D01*
X421259Y593193D01*
X419925Y592637D01*
X418592Y592637D01*
X417259Y593193D01*
X416592Y594304D01*
G54D12*
X430369Y599859D02*
X430369Y594304D01*
X429703Y593193D01*
X428369Y592637D01*
X427036Y592637D01*
X425703Y593193D01*
X425036Y594304D01*
X425036Y599859D01*
X425703Y600970D01*
X427036Y601526D01*
X428369Y601526D01*
X429703Y600970D01*
X430369Y599859D01*
G54D10*
X400100Y562000D02*
X400100Y581000D01*
X438100Y581000D01*
X438100Y562000D01*
X400100Y562000D01*
G54D10*
X400000Y571500D02*
X392100Y571500D01*
G54D10*
X438100Y571500D02*
X446000Y571500D01*
G54D12*
X408148Y574459D02*
X408815Y575570D01*
X410148Y576126D01*
X411481Y576126D01*
X412815Y575570D01*
X413481Y574459D01*
X413481Y573348D01*
X412815Y572237D01*
X411481Y571682D01*
X412815Y571126D01*
X413481Y570015D01*
X413481Y568904D01*
X412815Y567793D01*
X411481Y567237D01*
X410148Y567237D01*
X408815Y567793D01*
X408148Y568904D01*
G54D12*
X416592Y574459D02*
X417259Y575570D01*
X418592Y576126D01*
X419925Y576126D01*
X421259Y575570D01*
X421925Y574459D01*
X421925Y573348D01*
X421259Y572237D01*
X419925Y571682D01*
X421259Y571126D01*
X421925Y570015D01*
X421925Y568904D01*
X421259Y567793D01*
X419925Y567237D01*
X418592Y567237D01*
X417259Y567793D01*
X416592Y568904D01*
G54D12*
X430369Y574459D02*
X430369Y568904D01*
X429703Y567793D01*
X428369Y567237D01*
X427036Y567237D01*
X425703Y567793D01*
X425036Y568904D01*
X425036Y574459D01*
X425703Y575570D01*
X427036Y576126D01*
X428369Y576126D01*
X429703Y575570D01*
X430369Y574459D01*
G54D10*
G75*
G01X433493Y856810D02*
G03X405556Y861737I-15893J-8450D01*
G01*
G54D10*
G75*
G01X406030Y834571D02*
G03X433493Y839910I11570J13789D01*
G01*
G54D10*
X405600Y861860D02*
X405600Y857060D01*
G54D10*
X405700Y834860D02*
X405700Y839660D01*
G54D12*
X407228Y871856D02*
X407228Y880744D01*
X410561Y880744D01*
X411895Y880189D01*
X412561Y879078D01*
X412561Y877967D01*
X411895Y876856D01*
X410561Y876300D01*
X407228Y876300D01*
G54D12*
X415672Y880744D02*
X415672Y871856D01*
X419005Y877411D01*
X422339Y871856D01*
X422339Y880744D01*
G54D12*
X428117Y876300D02*
X430117Y875189D01*
X430783Y874078D01*
X430783Y871856D01*
G54D12*
X425450Y871856D02*
X425450Y880744D01*
X428783Y880744D01*
X430117Y880189D01*
X430783Y879078D01*
X430783Y877967D01*
X430117Y876856D01*
X428783Y876300D01*
X425450Y876300D01*
G54D13*
X258800Y568260D02*
X258800Y560260D01*
X300000Y560260D01*
X300000Y568260D01*
G54D13*
G75*
G01X300100Y568160D02*
G03X258700Y568160I-20700J0D01*
G01*
G54D14*
X277800Y591160D02*
X277800Y598260D01*
X280500Y598260D01*
X281500Y597860D01*
X282100Y596960D01*
X282100Y596060D01*
X281500Y595160D01*
X280500Y594760D01*
X281500Y594260D01*
X282100Y593360D01*
X282100Y592460D01*
X281500Y591560D01*
X280500Y591160D01*
X277800Y591160D01*
G54D14*
X277800Y594760D02*
X280500Y594760D01*
G54D14*
X294300Y550660D02*
X290600Y550660D01*
X290600Y557760D01*
X294300Y557760D01*
G54D14*
X290600Y554260D02*
X294300Y554260D01*
G54D14*
X269400Y551960D02*
X268800Y551060D01*
X267800Y550660D01*
X266700Y550660D01*
X265600Y551060D01*
X265100Y551960D01*
X265100Y556460D01*
X265600Y557360D01*
X266700Y557760D01*
X267800Y557760D01*
X268800Y557360D01*
X269400Y556460D01*
G54D12*
X309410Y564820D02*
X309410Y573709D01*
X312743Y573709D01*
X314077Y573153D01*
X314743Y572042D01*
X314743Y570931D01*
X314077Y569820D01*
X312743Y569264D01*
X314077Y568709D01*
X314743Y567598D01*
X314743Y566487D01*
X314077Y565376D01*
X312743Y564820D01*
X309410Y564820D01*
G54D12*
X309410Y569264D02*
X312743Y569264D01*
G54D12*
X323187Y566487D02*
X322521Y565376D01*
X321187Y564820D01*
X319854Y564820D01*
X318521Y565376D01*
X317854Y566487D01*
X317854Y572042D01*
X318521Y573153D01*
X319854Y573709D01*
X321187Y573709D01*
X322521Y573153D01*
X323187Y572042D01*
G54D12*
X326298Y572042D02*
X326965Y573153D01*
X328298Y573709D01*
X329631Y573709D01*
X330965Y573153D01*
X331631Y572042D01*
X331631Y570931D01*
X330965Y569820D01*
X329631Y569264D01*
X330965Y568709D01*
X331631Y567598D01*
X331631Y566487D01*
X330965Y565376D01*
X329631Y564820D01*
X328298Y564820D01*
X326965Y565376D01*
X326298Y566487D01*
G54D12*
X334742Y572042D02*
X335409Y573153D01*
X336742Y573709D01*
X338075Y573709D01*
X339409Y573153D01*
X340075Y572042D01*
X340075Y570931D01*
X339409Y569820D01*
X338075Y569264D01*
X339409Y568709D01*
X340075Y567598D01*
X340075Y566487D01*
X339409Y565376D01*
X338075Y564820D01*
X336742Y564820D01*
X335409Y565376D01*
X334742Y566487D01*
G54D12*
X343186Y573709D02*
X348519Y573709D01*
X347853Y572598D01*
X346519Y570931D01*
X345186Y568709D01*
X344519Y567042D01*
X344519Y564820D01*
G54D10*
G75*
G01X216327Y659545D02*
G03X216327Y630156I-20225J-14695D01*
G01*
G54D10*
X216302Y630550D02*
X216302Y659150D01*
G54D11*
X106183Y656460D02*
X95516Y656460D01*
X95516Y648682D01*
X96849Y648682D01*
X99516Y649794D01*
X102183Y649794D01*
X104849Y648682D01*
X106183Y646460D01*
X106183Y642016D01*
X104849Y639794D01*
X102183Y638682D01*
X99516Y638682D01*
X96849Y639794D01*
X95516Y642016D01*
G54D11*
X123072Y653127D02*
X123072Y642016D01*
X121738Y639794D01*
X119072Y638682D01*
X116405Y638682D01*
X113738Y639794D01*
X112405Y642016D01*
X112405Y653127D01*
X113738Y655349D01*
X116405Y656460D01*
X119072Y656460D01*
X121738Y655349D01*
X123072Y653127D01*
G54D11*
X131961Y638682D02*
X142627Y656460D01*
G54D11*
X143961Y644238D02*
X141294Y644238D01*
X139961Y643127D01*
X139961Y640905D01*
X141294Y639794D01*
X143961Y639794D01*
X145294Y640905D01*
X145294Y643127D01*
X143961Y644238D01*
G54D11*
X133294Y655349D02*
X130627Y655349D01*
X129294Y654238D01*
X129294Y652016D01*
X130627Y650905D01*
X133294Y650905D01*
X134627Y652016D01*
X134627Y654238D01*
X133294Y655349D01*
G54D13*
X258800Y644460D02*
X258800Y636460D01*
X300000Y636460D01*
X300000Y644460D01*
G54D13*
G75*
G01X300100Y644360D02*
G03X258700Y644360I-20700J0D01*
G01*
G54D14*
X277800Y667360D02*
X277800Y674460D01*
X280500Y674460D01*
X281500Y674060D01*
X282100Y673160D01*
X282100Y672260D01*
X281500Y671360D01*
X280500Y670960D01*
X281500Y670460D01*
X282100Y669560D01*
X282100Y668660D01*
X281500Y667760D01*
X280500Y667360D01*
X277800Y667360D01*
G54D14*
X277800Y670960D02*
X280500Y670960D01*
G54D14*
X294300Y626860D02*
X290600Y626860D01*
X290600Y633960D01*
X294300Y633960D01*
G54D14*
X290600Y630460D02*
X294300Y630460D01*
G54D14*
X269400Y628160D02*
X268800Y627260D01*
X267800Y626860D01*
X266700Y626860D01*
X265600Y627260D01*
X265100Y628160D01*
X265100Y632660D01*
X265600Y633560D01*
X266700Y633960D01*
X267800Y633960D01*
X268800Y633560D01*
X269400Y632660D01*
G54D12*
X309410Y641020D02*
X309410Y649909D01*
X312743Y649909D01*
X314077Y649353D01*
X314743Y648242D01*
X314743Y647131D01*
X314077Y646020D01*
X312743Y645464D01*
X314077Y644909D01*
X314743Y643798D01*
X314743Y642687D01*
X314077Y641576D01*
X312743Y641020D01*
X309410Y641020D01*
G54D12*
X309410Y645464D02*
X312743Y645464D01*
G54D12*
X323187Y642687D02*
X322521Y641576D01*
X321187Y641020D01*
X319854Y641020D01*
X318521Y641576D01*
X317854Y642687D01*
X317854Y648242D01*
X318521Y649353D01*
X319854Y649909D01*
X321187Y649909D01*
X322521Y649353D01*
X323187Y648242D01*
G54D12*
X326298Y648242D02*
X326965Y649353D01*
X328298Y649909D01*
X329631Y649909D01*
X330965Y649353D01*
X331631Y648242D01*
X331631Y647131D01*
X330965Y646020D01*
X329631Y645464D01*
X330965Y644909D01*
X331631Y643798D01*
X331631Y642687D01*
X330965Y641576D01*
X329631Y641020D01*
X328298Y641020D01*
X326965Y641576D01*
X326298Y642687D01*
G54D12*
X334742Y648242D02*
X335409Y649353D01*
X336742Y649909D01*
X338075Y649909D01*
X339409Y649353D01*
X340075Y648242D01*
X340075Y647131D01*
X339409Y646020D01*
X338075Y645464D01*
X339409Y644909D01*
X340075Y643798D01*
X340075Y642687D01*
X339409Y641576D01*
X338075Y641020D01*
X336742Y641020D01*
X335409Y641576D01*
X334742Y642687D01*
G54D12*
X343186Y649909D02*
X348519Y649909D01*
X347853Y648798D01*
X346519Y647131D01*
X345186Y644909D01*
X344519Y643242D01*
X344519Y641020D01*
G54D10*
G75*
G01X216327Y735745D02*
G03X216327Y706356I-20225J-14695D01*
G01*
G54D10*
X216302Y706750D02*
X216302Y735350D01*
G54D11*
X95516Y732660D02*
X106183Y732660D01*
X104849Y730438D01*
X102183Y727105D01*
X99516Y722660D01*
X98183Y719327D01*
X98183Y714882D01*
G54D11*
X123072Y732660D02*
X112405Y732660D01*
X112405Y724882D01*
X113738Y724882D01*
X116405Y725994D01*
X119072Y725994D01*
X121738Y724882D01*
X123072Y722660D01*
X123072Y718216D01*
X121738Y715994D01*
X119072Y714882D01*
X116405Y714882D01*
X113738Y715994D01*
X112405Y718216D01*
G54D11*
X131961Y714882D02*
X142627Y732660D01*
G54D11*
X143961Y720438D02*
X141294Y720438D01*
X139961Y719327D01*
X139961Y717105D01*
X141294Y715994D01*
X143961Y715994D01*
X145294Y717105D01*
X145294Y719327D01*
X143961Y720438D01*
G54D11*
X133294Y731549D02*
X130627Y731549D01*
X129294Y730438D01*
X129294Y728216D01*
X130627Y727105D01*
X133294Y727105D01*
X134627Y728216D01*
X134627Y730438D01*
X133294Y731549D01*
G54D13*
X258800Y720660D02*
X258800Y712660D01*
X300000Y712660D01*
X300000Y720660D01*
G54D13*
G75*
G01X300100Y720560D02*
G03X258700Y720560I-20700J0D01*
G01*
G54D14*
X277800Y743560D02*
X277800Y750660D01*
X280500Y750660D01*
X281500Y750260D01*
X282100Y749360D01*
X282100Y748460D01*
X281500Y747560D01*
X280500Y747160D01*
X281500Y746660D01*
X282100Y745760D01*
X282100Y744860D01*
X281500Y743960D01*
X280500Y743560D01*
X277800Y743560D01*
G54D14*
X277800Y747160D02*
X280500Y747160D01*
G54D14*
X294300Y703060D02*
X290600Y703060D01*
X290600Y710160D01*
X294300Y710160D01*
G54D14*
X290600Y706660D02*
X294300Y706660D01*
G54D14*
X269400Y704360D02*
X268800Y703460D01*
X267800Y703060D01*
X266700Y703060D01*
X265600Y703460D01*
X265100Y704360D01*
X265100Y708860D01*
X265600Y709760D01*
X266700Y710160D01*
X267800Y710160D01*
X268800Y709760D01*
X269400Y708860D01*
G54D12*
X309410Y717220D02*
X309410Y726109D01*
X312743Y726109D01*
X314077Y725553D01*
X314743Y724442D01*
X314743Y723331D01*
X314077Y722220D01*
X312743Y721664D01*
X314077Y721109D01*
X314743Y719998D01*
X314743Y718887D01*
X314077Y717776D01*
X312743Y717220D01*
X309410Y717220D01*
G54D12*
X309410Y721664D02*
X312743Y721664D01*
G54D12*
X323187Y718887D02*
X322521Y717776D01*
X321187Y717220D01*
X319854Y717220D01*
X318521Y717776D01*
X317854Y718887D01*
X317854Y724442D01*
X318521Y725553D01*
X319854Y726109D01*
X321187Y726109D01*
X322521Y725553D01*
X323187Y724442D01*
G54D12*
X326298Y724442D02*
X326965Y725553D01*
X328298Y726109D01*
X329631Y726109D01*
X330965Y725553D01*
X331631Y724442D01*
X331631Y723331D01*
X330965Y722220D01*
X329631Y721664D01*
X330965Y721109D01*
X331631Y719998D01*
X331631Y718887D01*
X330965Y717776D01*
X329631Y717220D01*
X328298Y717220D01*
X326965Y717776D01*
X326298Y718887D01*
G54D12*
X334742Y724442D02*
X335409Y725553D01*
X336742Y726109D01*
X338075Y726109D01*
X339409Y725553D01*
X340075Y724442D01*
X340075Y723331D01*
X339409Y722220D01*
X338075Y721664D01*
X339409Y721109D01*
X340075Y719998D01*
X340075Y718887D01*
X339409Y717776D01*
X338075Y717220D01*
X336742Y717220D01*
X335409Y717776D01*
X334742Y718887D01*
G54D12*
X343186Y726109D02*
X348519Y726109D01*
X347853Y724998D01*
X346519Y723331D01*
X345186Y721109D01*
X344519Y719442D01*
X344519Y717220D01*
G54D10*
G75*
G01X216327Y811945D02*
G03X216327Y782556I-20225J-14695D01*
G01*
G54D10*
X216302Y782950D02*
X216302Y811550D01*
G54D11*
X95516Y802194D02*
X102183Y808860D01*
X102183Y791082D01*
G54D11*
X119072Y805527D02*
X119072Y794416D01*
X117738Y792194D01*
X115072Y791082D01*
X112405Y791082D01*
X109738Y792194D01*
X108405Y794416D01*
X108405Y805527D01*
X109738Y807749D01*
X112405Y808860D01*
X115072Y808860D01*
X117738Y807749D01*
X119072Y805527D01*
G54D11*
X135961Y805527D02*
X135961Y794416D01*
X134627Y792194D01*
X131961Y791082D01*
X129294Y791082D01*
X126627Y792194D01*
X125294Y794416D01*
X125294Y805527D01*
X126627Y807749D01*
X129294Y808860D01*
X131961Y808860D01*
X134627Y807749D01*
X135961Y805527D01*
G54D11*
X144850Y791082D02*
X155516Y808860D01*
G54D11*
X156850Y796638D02*
X154183Y796638D01*
X152850Y795527D01*
X152850Y793305D01*
X154183Y792194D01*
X156850Y792194D01*
X158183Y793305D01*
X158183Y795527D01*
X156850Y796638D01*
G54D11*
X146183Y807749D02*
X143516Y807749D01*
X142183Y806638D01*
X142183Y804416D01*
X143516Y803305D01*
X146183Y803305D01*
X147516Y804416D01*
X147516Y806638D01*
X146183Y807749D01*
G54D13*
X258800Y796860D02*
X258800Y788860D01*
X300000Y788860D01*
X300000Y796860D01*
G54D13*
G75*
G01X300100Y796760D02*
G03X258700Y796760I-20700J0D01*
G01*
G54D14*
X277800Y819760D02*
X277800Y826860D01*
X280500Y826860D01*
X281500Y826460D01*
X282100Y825560D01*
X282100Y824660D01*
X281500Y823760D01*
X280500Y823360D01*
X281500Y822860D01*
X282100Y821960D01*
X282100Y821060D01*
X281500Y820160D01*
X280500Y819760D01*
X277800Y819760D01*
G54D14*
X277800Y823360D02*
X280500Y823360D01*
G54D14*
X294300Y779260D02*
X290600Y779260D01*
X290600Y786360D01*
X294300Y786360D01*
G54D14*
X290600Y782860D02*
X294300Y782860D01*
G54D14*
X269400Y780560D02*
X268800Y779660D01*
X267800Y779260D01*
X266700Y779260D01*
X265600Y779660D01*
X265100Y780560D01*
X265100Y785060D01*
X265600Y785960D01*
X266700Y786360D01*
X267800Y786360D01*
X268800Y785960D01*
X269400Y785060D01*
G54D12*
X309410Y793420D02*
X309410Y802309D01*
X312743Y802309D01*
X314077Y801753D01*
X314743Y800642D01*
X314743Y799531D01*
X314077Y798420D01*
X312743Y797864D01*
X314077Y797309D01*
X314743Y796198D01*
X314743Y795087D01*
X314077Y793976D01*
X312743Y793420D01*
X309410Y793420D01*
G54D12*
X309410Y797864D02*
X312743Y797864D01*
G54D12*
X323187Y795087D02*
X322521Y793976D01*
X321187Y793420D01*
X319854Y793420D01*
X318521Y793976D01*
X317854Y795087D01*
X317854Y800642D01*
X318521Y801753D01*
X319854Y802309D01*
X321187Y802309D01*
X322521Y801753D01*
X323187Y800642D01*
G54D12*
X326298Y800642D02*
X326965Y801753D01*
X328298Y802309D01*
X329631Y802309D01*
X330965Y801753D01*
X331631Y800642D01*
X331631Y799531D01*
X330965Y798420D01*
X329631Y797864D01*
X330965Y797309D01*
X331631Y796198D01*
X331631Y795087D01*
X330965Y793976D01*
X329631Y793420D01*
X328298Y793420D01*
X326965Y793976D01*
X326298Y795087D01*
G54D12*
X334742Y800642D02*
X335409Y801753D01*
X336742Y802309D01*
X338075Y802309D01*
X339409Y801753D01*
X340075Y800642D01*
X340075Y799531D01*
X339409Y798420D01*
X338075Y797864D01*
X339409Y797309D01*
X340075Y796198D01*
X340075Y795087D01*
X339409Y793976D01*
X338075Y793420D01*
X336742Y793420D01*
X335409Y793976D01*
X334742Y795087D01*
G54D12*
X343186Y802309D02*
X348519Y802309D01*
X347853Y801198D01*
X346519Y799531D01*
X345186Y797309D01*
X344519Y795642D01*
X344519Y793420D01*
G54D10*
G75*
G01X216327Y888145D02*
G03X216327Y858756I-20225J-14695D01*
G01*
G54D10*
X216302Y859150D02*
X216302Y887750D01*
G54D11*
X95516Y867282D02*
X102183Y885060D01*
X108849Y867282D01*
G54D11*
X98183Y873949D02*
X106183Y873949D01*
G54D11*
X115071Y867282D02*
X115071Y885060D01*
G54D11*
X121293Y876171D02*
X123960Y877282D01*
X127160Y877282D01*
X129293Y875060D01*
X129293Y867282D01*
G54D11*
X129293Y870616D02*
X127960Y872838D01*
X125293Y873282D01*
X122626Y872838D01*
X121293Y870616D01*
X121826Y868394D01*
X123960Y867282D01*
X125293Y867282D01*
X125826Y867282D01*
X127960Y868394D01*
X129293Y870616D01*
G54D11*
X135515Y867282D02*
X135515Y877282D01*
G54D11*
X135515Y875060D02*
X138182Y877282D01*
X140848Y877282D01*
G54D11*
X147070Y867282D02*
X147070Y877282D01*
G54D11*
X147070Y875505D02*
X149737Y877282D01*
X152403Y876616D01*
X153737Y875060D01*
X153737Y867282D01*
G54D11*
X153737Y875505D02*
X156403Y877282D01*
X159070Y876616D01*
X160403Y875060D01*
X160403Y867282D01*
G54D13*
X258800Y873060D02*
X258800Y865060D01*
X300000Y865060D01*
X300000Y873060D01*
G54D13*
G75*
G01X300100Y872960D02*
G03X258700Y872960I-20700J0D01*
G01*
G54D14*
X277800Y895960D02*
X277800Y903060D01*
X280500Y903060D01*
X281500Y902660D01*
X282100Y901760D01*
X282100Y900860D01*
X281500Y899960D01*
X280500Y899560D01*
X281500Y899060D01*
X282100Y898160D01*
X282100Y897260D01*
X281500Y896360D01*
X280500Y895960D01*
X277800Y895960D01*
G54D14*
X277800Y899560D02*
X280500Y899560D01*
G54D14*
X294300Y855460D02*
X290600Y855460D01*
X290600Y862560D01*
X294300Y862560D01*
G54D14*
X290600Y859060D02*
X294300Y859060D01*
G54D14*
X269400Y856760D02*
X268800Y855860D01*
X267800Y855460D01*
X266700Y855460D01*
X265600Y855860D01*
X265100Y856760D01*
X265100Y861260D01*
X265600Y862160D01*
X266700Y862560D01*
X267800Y862560D01*
X268800Y862160D01*
X269400Y861260D01*
G54D12*
X309410Y869620D02*
X309410Y878509D01*
X312743Y878509D01*
X314077Y877953D01*
X314743Y876842D01*
X314743Y875731D01*
X314077Y874620D01*
X312743Y874064D01*
X314077Y873509D01*
X314743Y872398D01*
X314743Y871287D01*
X314077Y870176D01*
X312743Y869620D01*
X309410Y869620D01*
G54D12*
X309410Y874064D02*
X312743Y874064D01*
G54D12*
X323187Y871287D02*
X322521Y870176D01*
X321187Y869620D01*
X319854Y869620D01*
X318521Y870176D01*
X317854Y871287D01*
X317854Y876842D01*
X318521Y877953D01*
X319854Y878509D01*
X321187Y878509D01*
X322521Y877953D01*
X323187Y876842D01*
G54D12*
X326298Y876842D02*
X326965Y877953D01*
X328298Y878509D01*
X329631Y878509D01*
X330965Y877953D01*
X331631Y876842D01*
X331631Y875731D01*
X330965Y874620D01*
X329631Y874064D01*
X330965Y873509D01*
X331631Y872398D01*
X331631Y871287D01*
X330965Y870176D01*
X329631Y869620D01*
X328298Y869620D01*
X326965Y870176D01*
X326298Y871287D01*
G54D12*
X334742Y876842D02*
X335409Y877953D01*
X336742Y878509D01*
X338075Y878509D01*
X339409Y877953D01*
X340075Y876842D01*
X340075Y875731D01*
X339409Y874620D01*
X338075Y874064D01*
X339409Y873509D01*
X340075Y872398D01*
X340075Y871287D01*
X339409Y870176D01*
X338075Y869620D01*
X336742Y869620D01*
X335409Y870176D01*
X334742Y871287D01*
G54D12*
X343186Y878509D02*
X348519Y878509D01*
X347853Y877398D01*
X346519Y875731D01*
X345186Y873509D01*
X344519Y871842D01*
X344519Y869620D01*
G54D15*
X335407Y456564D02*
X338073Y456564D01*
X338073Y453787D01*
X337407Y452676D01*
X336073Y452120D01*
X334740Y452120D01*
X333407Y452676D01*
X332740Y453787D01*
X332740Y459342D01*
X333407Y460453D01*
X334740Y461009D01*
X336073Y461009D01*
X337407Y460453D01*
X338073Y459342D01*
G54D15*
X340517Y452120D02*
X340517Y461009D01*
X345850Y452120D01*
X345850Y461009D01*
G54D15*
X348294Y452120D02*
X348294Y461009D01*
X351627Y461009D01*
X352961Y460453D01*
X353627Y459342D01*
X353627Y453787D01*
X352961Y452676D01*
X351627Y452120D01*
X348294Y452120D01*
G54D15*
X261873Y452120D02*
X256540Y452120D01*
X256540Y452676D01*
X257207Y453787D01*
X261207Y457120D01*
X261873Y458231D01*
X261873Y459342D01*
X261207Y460453D01*
X259873Y461009D01*
X258540Y461009D01*
X257207Y460453D01*
X256540Y459342D01*
G54D15*
X269650Y461009D02*
X264317Y461009D01*
X264317Y457120D01*
X264984Y457120D01*
X266317Y457676D01*
X267650Y457676D01*
X268984Y457120D01*
X269650Y456009D01*
X269650Y453787D01*
X268984Y452676D01*
X267650Y452120D01*
X266317Y452120D01*
X264984Y452676D01*
X264317Y453787D01*
G54D15*
X273427Y452120D02*
X278761Y461009D01*
G54D15*
X279427Y454898D02*
X278094Y454898D01*
X277427Y454342D01*
X277427Y453231D01*
X278094Y452676D01*
X279427Y452676D01*
X280094Y453231D01*
X280094Y454342D01*
X279427Y454898D01*
G54D15*
X274094Y460453D02*
X272761Y460453D01*
X272094Y459898D01*
X272094Y458787D01*
X272761Y458231D01*
X274094Y458231D01*
X274761Y458787D01*
X274761Y459898D01*
X274094Y460453D01*
G54D15*
X223773Y461009D02*
X218440Y461009D01*
X218440Y457120D01*
X219107Y457120D01*
X220440Y457676D01*
X221773Y457676D01*
X223107Y457120D01*
X223773Y456009D01*
X223773Y453787D01*
X223107Y452676D01*
X221773Y452120D01*
X220440Y452120D01*
X219107Y452676D01*
X218440Y453787D01*
G54D15*
X231550Y459342D02*
X231550Y453787D01*
X230884Y452676D01*
X229550Y452120D01*
X228217Y452120D01*
X226884Y452676D01*
X226217Y453787D01*
X226217Y459342D01*
X226884Y460453D01*
X228217Y461009D01*
X229550Y461009D01*
X230884Y460453D01*
X231550Y459342D01*
G54D15*
X235327Y452120D02*
X240661Y461009D01*
G54D15*
X241327Y454898D02*
X239994Y454898D01*
X239327Y454342D01*
X239327Y453231D01*
X239994Y452676D01*
X241327Y452676D01*
X241994Y453231D01*
X241994Y454342D01*
X241327Y454898D01*
G54D15*
X235994Y460453D02*
X234661Y460453D01*
X233994Y459898D01*
X233994Y458787D01*
X234661Y458231D01*
X235994Y458231D01*
X236661Y458787D01*
X236661Y459898D01*
X235994Y460453D01*
G54D15*
X179070Y461009D02*
X184403Y461009D01*
X183737Y459898D01*
X182403Y458231D01*
X181070Y456009D01*
X180403Y454342D01*
X180403Y452120D01*
G54D15*
X192180Y461009D02*
X186847Y461009D01*
X186847Y457120D01*
X187514Y457120D01*
X188847Y457676D01*
X190180Y457676D01*
X191514Y457120D01*
X192180Y456009D01*
X192180Y453787D01*
X191514Y452676D01*
X190180Y452120D01*
X188847Y452120D01*
X187514Y452676D01*
X186847Y453787D01*
G54D15*
X195957Y452120D02*
X201291Y461009D01*
G54D15*
X201957Y454898D02*
X200624Y454898D01*
X199957Y454342D01*
X199957Y453231D01*
X200624Y452676D01*
X201957Y452676D01*
X202624Y453231D01*
X202624Y454342D01*
X201957Y454898D01*
G54D15*
X196624Y460453D02*
X195291Y460453D01*
X194624Y459898D01*
X194624Y458787D01*
X195291Y458231D01*
X196624Y458231D01*
X197291Y458787D01*
X197291Y459898D01*
X196624Y460453D01*
G54D15*
X138430Y457676D02*
X141763Y461009D01*
X141763Y452120D01*
G54D15*
X149540Y459342D02*
X149540Y453787D01*
X148874Y452676D01*
X147540Y452120D01*
X146207Y452120D01*
X144874Y452676D01*
X144207Y453787D01*
X144207Y459342D01*
X144874Y460453D01*
X146207Y461009D01*
X147540Y461009D01*
X148874Y460453D01*
X149540Y459342D01*
G54D15*
X157317Y459342D02*
X157317Y453787D01*
X156651Y452676D01*
X155317Y452120D01*
X153984Y452120D01*
X152651Y452676D01*
X151984Y453787D01*
X151984Y459342D01*
X152651Y460453D01*
X153984Y461009D01*
X155317Y461009D01*
X156651Y460453D01*
X157317Y459342D01*
G54D15*
X161094Y452120D02*
X166428Y461009D01*
G54D15*
X167094Y454898D02*
X165761Y454898D01*
X165094Y454342D01*
X165094Y453231D01*
X165761Y452676D01*
X167094Y452676D01*
X167761Y453231D01*
X167761Y454342D01*
X167094Y454898D01*
G54D15*
X161761Y460453D02*
X160428Y460453D01*
X159761Y459898D01*
X159761Y458787D01*
X160428Y458231D01*
X161761Y458231D01*
X162428Y458787D01*
X162428Y459898D01*
X161761Y460453D01*
G54D15*
X99060Y452120D02*
X102393Y461009D01*
X105727Y452120D01*
G54D15*
X100393Y455453D02*
X104393Y455453D01*
G54D15*
X108171Y452120D02*
X108171Y461009D01*
G54D15*
X110615Y456564D02*
X111948Y457120D01*
X113548Y457120D01*
X114615Y456009D01*
X114615Y452120D01*
G54D15*
X114615Y453787D02*
X113948Y454898D01*
X112615Y455120D01*
X111282Y454898D01*
X110615Y453787D01*
X110882Y452676D01*
X111948Y452120D01*
X112615Y452120D01*
X112882Y452120D01*
X113948Y452676D01*
X114615Y453787D01*
G54D15*
X117059Y452120D02*
X117059Y457120D01*
G54D15*
X117059Y456009D02*
X118392Y457120D01*
X119726Y457120D01*
G54D15*
X122170Y452120D02*
X122170Y457120D01*
G54D15*
X122170Y456231D02*
X123503Y457120D01*
X124837Y456787D01*
X125503Y456009D01*
X125503Y452120D01*
G54D15*
X125503Y456231D02*
X126837Y457120D01*
X128170Y456787D01*
X128837Y456009D01*
X128837Y452120D01*
G54D15*
X410210Y461009D02*
X413543Y452120D01*
X416877Y461009D01*
G54D15*
X424654Y453787D02*
X423988Y452676D01*
X422654Y452120D01*
X421321Y452120D01*
X419988Y452676D01*
X419321Y453787D01*
X419321Y459342D01*
X419988Y460453D01*
X421321Y461009D01*
X422654Y461009D01*
X423988Y460453D01*
X424654Y459342D01*
G54D15*
X432431Y453787D02*
X431765Y452676D01*
X430431Y452120D01*
X429098Y452120D01*
X427765Y452676D01*
X427098Y453787D01*
X427098Y459342D01*
X427765Y460453D01*
X429098Y461009D01*
X430431Y461009D01*
X431765Y460453D01*
X432431Y459342D01*
G54D15*
X442785Y461009D02*
X437452Y461009D01*
X437452Y457120D01*
X438119Y457120D01*
X439452Y457676D01*
X440785Y457676D01*
X442119Y457120D01*
X442785Y456009D01*
X442785Y453787D01*
X442119Y452676D01*
X440785Y452120D01*
X439452Y452120D01*
X438119Y452676D01*
X437452Y453787D01*
G54D15*
X445229Y461009D02*
X448562Y452120D01*
X451896Y461009D01*
G54D16*
X132730Y414020D02*
X125730Y414020D01*
X125730Y427353D01*
X132730Y427353D01*
G54D16*
X125730Y420687D02*
X132730Y420687D01*
G54D16*
X137397Y414020D02*
X137397Y427353D01*
G54D16*
X148064Y414853D02*
X146464Y414020D01*
X144464Y414020D01*
X142464Y414853D01*
X142064Y416520D01*
X142064Y419353D01*
X143064Y421020D01*
X145064Y421520D01*
X147064Y421020D01*
X148064Y419853D01*
X148064Y418187D01*
X142064Y418187D01*
G54D16*
X157731Y421020D02*
X155731Y421520D01*
X153731Y421020D01*
X152731Y419353D01*
X152731Y416020D01*
X153731Y414353D01*
X155731Y414020D01*
X157731Y414353D01*
G54D16*
X164398Y427353D02*
X164398Y414853D01*
X165398Y414020D01*
X166398Y414353D01*
G54D16*
X162398Y421520D02*
X166398Y421520D01*
G54D16*
X171065Y414020D02*
X171065Y421520D01*
G54D16*
X171065Y419853D02*
X173065Y421520D01*
X175065Y421520D01*
G54D16*
X185732Y416020D02*
X185732Y419353D01*
X184732Y421020D01*
X182732Y421520D01*
X180732Y421020D01*
X179732Y419353D01*
X179732Y416020D01*
X180732Y414353D01*
X182732Y414020D01*
X184732Y414353D01*
X185732Y416020D01*
G54D16*
X190399Y414020D02*
X190399Y421520D01*
G54D16*
X190399Y419853D02*
X191399Y421020D01*
X193399Y421520D01*
X195399Y421020D01*
X196399Y419853D01*
X196399Y414020D01*
G54D16*
X201066Y414020D02*
X201066Y421520D01*
G54D16*
X201066Y424020D02*
X201066Y424020D01*
G54D16*
X210733Y421020D02*
X208733Y421520D01*
X206733Y421020D01*
X205733Y419353D01*
X205733Y416020D01*
X206733Y414353D01*
X208733Y414020D01*
X210733Y414353D01*
G54D16*
X215400Y414853D02*
X217400Y414020D01*
X219400Y414020D01*
X221400Y414853D01*
X221400Y416520D01*
X220400Y417353D01*
X216400Y418187D01*
X215400Y419020D01*
X215400Y420687D01*
X217400Y421520D01*
X219400Y421520D01*
X221400Y420687D01*
G54D16*
X230934Y414020D02*
X230934Y427353D01*
X235934Y427353D01*
X237934Y426520D01*
X238934Y424853D01*
X238934Y423187D01*
X237934Y421520D01*
X235934Y420687D01*
X230934Y420687D01*
G54D16*
X243601Y414020D02*
X243601Y421520D01*
G54D16*
X243601Y419853D02*
X245601Y421520D01*
X247601Y421520D01*
G54D16*
X258268Y416020D02*
X258268Y419353D01*
X257268Y421020D01*
X255268Y421520D01*
X253268Y421020D01*
X252268Y419353D01*
X252268Y416020D01*
X253268Y414353D01*
X255268Y414020D01*
X257268Y414353D01*
X258268Y416020D01*
G54D16*
X264935Y424020D02*
X264935Y424020D01*
G54D16*
X262935Y410687D02*
X263935Y410687D01*
X264935Y412020D01*
X264935Y421520D01*
G54D16*
X275602Y414853D02*
X274002Y414020D01*
X272002Y414020D01*
X270002Y414853D01*
X269602Y416520D01*
X269602Y419353D01*
X270602Y421020D01*
X272602Y421520D01*
X274602Y421020D01*
X275602Y419853D01*
X275602Y418187D01*
X269602Y418187D01*
G54D16*
X285269Y421020D02*
X283269Y421520D01*
X281269Y421020D01*
X280269Y419353D01*
X280269Y416020D01*
X281269Y414353D01*
X283269Y414020D01*
X285269Y414353D01*
G54D16*
X291936Y427353D02*
X291936Y414853D01*
X292936Y414020D01*
X293936Y414353D01*
G54D16*
X289936Y421520D02*
X293936Y421520D01*
G54D16*
X298603Y414853D02*
X300603Y414020D01*
X302603Y414020D01*
X304603Y414853D01*
X304603Y416520D01*
X303603Y417353D01*
X299603Y418187D01*
X298603Y419020D01*
X298603Y420687D01*
X300603Y421520D01*
X302603Y421520D01*
X304603Y420687D01*
G54D16*
X314137Y419853D02*
X322137Y419853D01*
G54D16*
X331671Y416520D02*
X332671Y414853D01*
X334671Y414020D01*
X336671Y414020D01*
X338671Y414853D01*
X339671Y416520D01*
X339671Y418187D01*
X338671Y419853D01*
X336671Y420687D01*
X334671Y420687D01*
X332671Y421520D01*
X331671Y423187D01*
X331671Y424853D01*
X332671Y426520D01*
X334671Y427353D01*
X336671Y427353D01*
X338671Y426520D01*
X339671Y424853D01*
G54D16*
X346338Y427353D02*
X346338Y414853D01*
X347338Y414020D01*
X348338Y414353D01*
G54D16*
X344338Y421520D02*
X348338Y421520D01*
G54D16*
X359005Y414853D02*
X357405Y414020D01*
X355405Y414020D01*
X353405Y414853D01*
X353005Y416520D01*
X353005Y419353D01*
X354005Y421020D01*
X356005Y421520D01*
X358005Y421020D01*
X359005Y419853D01*
X359005Y418187D01*
X353005Y418187D01*
G54D16*
X365672Y414020D02*
X365672Y426520D01*
X366672Y427353D01*
X367672Y426853D01*
G54D16*
X363672Y421520D02*
X367672Y421520D01*
G54D16*
X372339Y420687D02*
X374339Y421520D01*
X376739Y421520D01*
X378339Y419853D01*
X378339Y414020D01*
G54D16*
X378339Y416520D02*
X377339Y418187D01*
X375339Y418520D01*
X373339Y418187D01*
X372339Y416520D01*
X372739Y414853D01*
X374339Y414020D01*
X375339Y414020D01*
X375739Y414020D01*
X377339Y414853D01*
X378339Y416520D01*
G54D16*
X383006Y414020D02*
X383006Y421520D01*
G54D16*
X383006Y419853D02*
X384006Y421020D01*
X386006Y421520D01*
X388006Y421020D01*
X389006Y419853D01*
X389006Y414020D01*
G54D16*
X399673Y416020D02*
X399673Y419353D01*
X398673Y421020D01*
X396673Y421520D01*
X394673Y421020D01*
X393673Y419353D01*
X393673Y416020D01*
X394673Y414353D01*
X396673Y414020D01*
X398673Y414353D01*
X399673Y416020D01*
G54D16*
X404340Y416520D02*
X405340Y414853D01*
X407340Y414020D01*
X409340Y414020D01*
X411340Y414853D01*
X412340Y416520D01*
X412340Y420687D01*
X412340Y421520D01*
X409340Y419853D01*
X407340Y419853D01*
X405340Y420687D01*
X404340Y422353D01*
X404340Y424853D01*
X405340Y426520D01*
X407340Y427353D01*
X409340Y427353D01*
X411340Y426520D01*
X412340Y424853D01*
X412340Y420687D01*
G54D16*
X417007Y422353D02*
X422007Y427353D01*
X422007Y414020D01*
G54D16*
X426674Y414853D02*
X428674Y414020D01*
X430674Y414020D01*
X432674Y414853D01*
X432674Y416520D01*
X431674Y417353D01*
X427674Y418187D01*
X426674Y419020D01*
X426674Y420687D01*
X428674Y421520D01*
X430674Y421520D01*
X432674Y420687D01*
G54D16*
X439341Y427353D02*
X439341Y414853D01*
X440341Y414020D01*
X441341Y414353D01*
G54D16*
X437341Y421520D02*
X441341Y421520D01*
G54D16*
X452008Y414853D02*
X450408Y414020D01*
X448408Y414020D01*
X446408Y414853D01*
X446008Y416520D01*
X446008Y419353D01*
X447008Y421020D01*
X449008Y421520D01*
X451008Y421020D01*
X452008Y419853D01*
X452008Y418187D01*
X446008Y418187D01*
G54D17*
X490587Y549946D02*
X497587Y552746D01*
X490587Y555546D01*
X497587Y558346D01*
X490587Y560213D01*
G54D17*
X490588Y563635D02*
X497588Y566435D01*
X490587Y569235D01*
X497587Y572035D01*
X490587Y573902D01*
G54D17*
X490587Y577324D02*
X497587Y580124D01*
X490588Y582924D01*
X497587Y585724D01*
X490587Y587591D01*
G54D17*
X497587Y591013D02*
X497587Y591013D01*
G54D17*
X490588Y594435D02*
X497587Y598169D01*
X490587Y601902D01*
G54D17*
X497587Y598169D02*
X499921Y597235D01*
X500698Y596302D01*
X500699Y595369D01*
G54D17*
X495721Y610924D02*
X492610Y610924D01*
X491054Y609991D01*
X490588Y608124D01*
X491054Y606258D01*
X492610Y605324D01*
X495721Y605324D01*
X497276Y606258D01*
X497588Y608124D01*
X497276Y609991D01*
X495721Y610924D01*
G54D17*
X490588Y619946D02*
X497588Y619946D01*
G54D17*
X496032Y619946D02*
X497276Y619013D01*
X497587Y617146D01*
X497276Y615280D01*
X496032Y614346D01*
X490587Y614346D01*
G54D17*
X485143Y625235D02*
X496810Y625235D01*
X497588Y626168D01*
X497276Y627102D01*
G54D17*
X490587Y623368D02*
X490588Y627102D01*
G54D17*
X490588Y636123D02*
X497588Y636123D01*
G54D17*
X496032Y636123D02*
X497276Y635190D01*
X497587Y633323D01*
X497276Y631457D01*
X496032Y630523D01*
X490587Y630523D01*
G54D17*
X497588Y639545D02*
X485143Y639545D01*
G54D17*
X492610Y639545D02*
X491054Y640479D01*
X490588Y642345D01*
X491054Y644212D01*
X492610Y645145D01*
X495721Y645145D01*
X497276Y644212D01*
X497588Y642345D01*
X497276Y640479D01*
X495721Y639545D01*
G54D17*
X496810Y654167D02*
X497587Y652674D01*
X497587Y650807D01*
X496810Y648941D01*
X495254Y648567D01*
X492610Y648567D01*
X491054Y649501D01*
X490587Y651367D01*
X491054Y653234D01*
X492143Y654167D01*
X493698Y654167D01*
X493699Y648567D01*
G54D17*
X497588Y657589D02*
X497588Y657589D01*
G54D17*
X491054Y665678D02*
X490588Y663811D01*
X491054Y661945D01*
X492610Y661011D01*
X495721Y661011D01*
X497276Y661945D01*
X497588Y663811D01*
X497276Y665678D01*
G54D17*
X495721Y674700D02*
X492610Y674700D01*
X491054Y673767D01*
X490587Y671900D01*
X491054Y670034D01*
X492610Y669100D01*
X495721Y669100D01*
X497276Y670034D01*
X497587Y671900D01*
X497276Y673767D01*
X495721Y674700D01*
G54D17*
X497588Y678122D02*
X490587Y678122D01*
G54D17*
X491832Y678122D02*
X490587Y679989D01*
X491054Y681856D01*
X492143Y682789D01*
X497587Y682789D01*
G54D17*
X491832Y682789D02*
X490587Y684656D01*
X491054Y686522D01*
X492143Y687456D01*
X497587Y687456D01*
G54D17*
X497587Y690877D02*
X485143Y698344D01*
G54D17*
X491054Y706433D02*
X490587Y704566D01*
X491054Y702700D01*
X492610Y701766D01*
X495721Y701766D01*
X497276Y702700D01*
X497588Y704566D01*
X497276Y706433D01*
G54D17*
X497588Y709855D02*
X485143Y717322D01*
G54D17*
X495254Y720744D02*
X496810Y721678D01*
X497587Y723544D01*
X497588Y725411D01*
X496810Y727278D01*
X495254Y728211D01*
X493698Y728211D01*
X492143Y727278D01*
X491365Y725411D01*
X491365Y723544D01*
X490587Y721678D01*
X489032Y720744D01*
X487476Y720744D01*
X485921Y721678D01*
X485143Y723544D01*
X485143Y725411D01*
X485921Y727278D01*
X487476Y728211D01*
G54D17*
X485143Y733500D02*
X496810Y733500D01*
X497587Y734433D01*
X497276Y735367D01*
G54D17*
X490587Y731633D02*
X490587Y735367D01*
G54D17*
X496810Y744388D02*
X497587Y742895D01*
X497587Y741028D01*
X496810Y739162D01*
X495254Y738788D01*
X492610Y738788D01*
X491054Y739722D01*
X490587Y741588D01*
X491054Y743455D01*
X492143Y744388D01*
X493698Y744388D01*
X493699Y738788D01*
G54D17*
X497587Y749677D02*
X485921Y749677D01*
X485143Y750610D01*
X485610Y751544D01*
G54D17*
X490587Y747810D02*
X490587Y751544D01*
G54D17*
X491365Y754965D02*
X490587Y756832D01*
X490587Y759072D01*
X492143Y760565D01*
X497587Y760565D01*
G54D17*
X495254Y760565D02*
X493698Y759632D01*
X493388Y757765D01*
X493699Y755899D01*
X495254Y754965D01*
X496810Y755339D01*
X497588Y756832D01*
X497588Y757765D01*
X497588Y758139D01*
X496810Y759632D01*
X495254Y760565D01*
G54D17*
X497588Y763987D02*
X490588Y763987D01*
G54D17*
X492143Y763987D02*
X491054Y764921D01*
X490587Y766787D01*
X491054Y768654D01*
X492143Y769587D01*
X497587Y769587D01*
G54D17*
X495721Y778609D02*
X492610Y778609D01*
X491054Y777676D01*
X490587Y775809D01*
X491054Y773943D01*
X492610Y773009D01*
X495721Y773009D01*
X497276Y773943D01*
X497587Y775809D01*
X497276Y777676D01*
X495721Y778609D01*
G54D17*
X495254Y782031D02*
X496810Y782965D01*
X497587Y784831D01*
X497587Y786698D01*
X496810Y788565D01*
X495254Y789498D01*
X491365Y789498D01*
X490588Y789498D01*
X492143Y786698D01*
X492143Y784831D01*
X491365Y782965D01*
X489810Y782031D01*
X487476Y782031D01*
X485921Y782965D01*
X485143Y784831D01*
X485143Y786698D01*
X485921Y788565D01*
X487476Y789498D01*
X491365Y789498D01*
G54D17*
X489810Y792920D02*
X485143Y797587D01*
X497588Y797587D01*
G54D17*
X496810Y801009D02*
X497587Y802876D01*
X497588Y804743D01*
X496810Y806609D01*
X495254Y806609D01*
X494476Y805676D01*
X493699Y801943D01*
X492921Y801009D01*
X491365Y801009D01*
X490587Y802876D01*
X490587Y804743D01*
X491365Y806609D01*
G54D17*
X485143Y811898D02*
X496810Y811898D01*
X497587Y812831D01*
X497276Y813765D01*
G54D17*
X490587Y810031D02*
X490587Y813765D01*
G54D17*
X496810Y822786D02*
X497587Y821293D01*
X497587Y819426D01*
X496810Y817560D01*
X495254Y817186D01*
X492610Y817186D01*
X491054Y818120D01*
X490587Y819986D01*
X491054Y821853D01*
X492143Y822786D01*
X493698Y822786D01*
X493699Y817186D01*
G54D11*
X227330Y927098D02*
X227330Y909320D01*
X236663Y909320D01*
G54D11*
X252218Y909320D02*
X242885Y909320D01*
X242885Y927098D01*
X252218Y927098D01*
G54D11*
X242885Y918209D02*
X252218Y918209D01*
G54D11*
X258440Y909320D02*
X258440Y927098D01*
X265107Y927098D01*
X267773Y925987D01*
X269107Y923764D01*
X269107Y912653D01*
X267773Y910431D01*
X265107Y909320D01*
X258440Y909320D01*
G54D11*
X281818Y927098D02*
X281818Y909320D01*
X288485Y920431D01*
X295151Y909320D01*
X295151Y927098D01*
G54D11*
X301373Y909320D02*
X308040Y927098D01*
X314706Y909320D01*
G54D11*
X304040Y915987D02*
X312040Y915987D01*
G54D11*
X326261Y909320D02*
X326261Y927098D01*
G54D11*
X320928Y927098D02*
X331595Y927098D01*
G54D11*
X347150Y909320D02*
X337817Y909320D01*
X337817Y927098D01*
X347150Y927098D01*
G54D11*
X337817Y918209D02*
X347150Y918209D01*
G54D11*
X358705Y918209D02*
X362705Y915987D01*
X364039Y913764D01*
X364039Y909320D01*
G54D11*
X353372Y909320D02*
X353372Y927098D01*
X360039Y927098D01*
X362705Y925987D01*
X364039Y923764D01*
X364039Y921542D01*
X362705Y919320D01*
X360039Y918209D01*
X353372Y918209D01*
G54D11*
X376750Y927098D02*
X376750Y909320D01*
X386083Y909320D01*
G54D11*
X401638Y909320D02*
X392305Y909320D01*
X392305Y927098D01*
X401638Y927098D01*
G54D11*
X392305Y918209D02*
X401638Y918209D01*
G54D11*
X407860Y927098D02*
X414527Y909320D01*
X421193Y927098D01*
G54D11*
X436748Y909320D02*
X427415Y909320D01*
X427415Y927098D01*
X436748Y927098D01*
G54D11*
X427415Y918209D02*
X436748Y918209D01*
G54D11*
X442970Y927098D02*
X442970Y909320D01*
X452303Y909320D01*
G54D18*
X483870Y459740D02*
X483870Y472184D01*
X488537Y464407D01*
X493203Y472184D01*
X493203Y459740D01*
G54D18*
X497559Y469851D02*
X498492Y471407D01*
X500359Y472184D01*
X502226Y472184D01*
X504092Y471407D01*
X505026Y469851D01*
X505026Y468296D01*
X504092Y466740D01*
X502226Y465962D01*
X504092Y465184D01*
X505026Y463629D01*
X505026Y462073D01*
X504092Y460518D01*
X502226Y459740D01*
X500359Y459740D01*
X498492Y460518D01*
X497559Y462073D01*
G54D10*
G75*
G01X502082Y489902D02*
G03X502082Y489902I-750J0D01*
G01*
G54D10*
G75*
G01X504482Y489902D02*
G03X504482Y489902I-3150J0D01*
G01*
G54D10*
X498158Y489902D02*
X485458Y489902D01*
X482282Y521652D01*
X503714Y521652D01*
X501332Y493078D01*
G54D10*
X487045Y489902D02*
X487045Y486728D01*
X489426Y486728D01*
X489426Y489902D01*
G54D10*
X503714Y514509D02*
X505301Y514509D01*
X505301Y511334D01*
X502920Y511334D01*
G54D19*
G75*
G01X503548Y521748D02*
G03X482416Y521748I-10566J-16270D01*
G01*
G54D10*
X490220Y524828D02*
X490220Y526415D01*
X495776Y526415D01*
X495776Y524828D01*
G54D10*
X484664Y523240D02*
X484664Y526415D01*
X486251Y526415D01*
X486251Y524034D01*
G54D10*
X491014Y511334D02*
X491014Y512921D01*
X495776Y512921D01*
X495776Y511334D01*
X491014Y511334D01*
G54D10*
X477520Y523240D02*
X509270Y488315D01*
G54D10*
X477520Y488315D02*
X509270Y523240D01*
G54D10*
X419100Y485140D02*
X444500Y485140D01*
G54D15*
X128270Y890349D02*
X133603Y890349D01*
G54D15*
X130937Y892571D02*
X130937Y888127D01*
G54D15*
X153670Y890349D02*
X159003Y890349D01*
G54D15*
X176117Y918210D02*
X171450Y918210D01*
X171450Y927099D01*
X176117Y927099D01*
G54D15*
X171450Y922654D02*
X176117Y922654D01*
G54D15*
X178561Y927099D02*
X185228Y918210D01*
G54D15*
X178561Y918210D02*
X185228Y927099D01*
G54D15*
X190339Y918210D02*
X190339Y927099D01*
G54D15*
X187672Y927099D02*
X193005Y927099D01*
G54D15*
X171450Y905510D02*
X171450Y914399D01*
X174783Y914399D01*
X176117Y913843D01*
X176783Y912732D01*
X176783Y911621D01*
X176117Y910510D01*
X174783Y909954D01*
X176117Y909399D01*
X176783Y908288D01*
X176783Y907177D01*
X176117Y906066D01*
X174783Y905510D01*
X171450Y905510D01*
G54D15*
X171450Y909954D02*
X174783Y909954D01*
G54D15*
X183227Y910510D02*
X183227Y905510D01*
G54D15*
X183227Y906621D02*
X182560Y905732D01*
X181227Y905510D01*
X179894Y905732D01*
X179227Y906621D01*
X179227Y910510D01*
G54D15*
X185671Y910510D02*
X189671Y910510D01*
X185671Y905510D01*
X189671Y905510D01*
G54D15*
X192115Y910510D02*
X196115Y910510D01*
X192115Y905510D01*
X196115Y905510D01*
G54D15*
X202559Y906066D02*
X201492Y905510D01*
X200159Y905510D01*
X198826Y906066D01*
X198559Y907177D01*
X198559Y909066D01*
X199226Y910177D01*
X200559Y910510D01*
X201892Y910177D01*
X202559Y909399D01*
X202559Y908288D01*
X198559Y908288D01*
G54D15*
X205003Y905510D02*
X205003Y910510D01*
G54D15*
X205003Y909399D02*
X206336Y910510D01*
X207670Y910510D01*
M02*
