%FSLAX34Y34*%
%MOMM*%
%LNSOLDERMASK_BOTTOM*%
G71*
G01*
%LPD*%
G36*
X218901Y563462D02*
X211589Y556150D01*
X201213Y556150D01*
X193901Y563462D01*
X193901Y573838D01*
X201213Y581150D01*
X211589Y581150D01*
X218901Y573838D01*
X218901Y563462D01*
G37*
G36*
X193502Y563462D02*
X186190Y556150D01*
X175814Y556150D01*
X168502Y563462D01*
X168502Y573838D01*
X175814Y581150D01*
X186190Y581150D01*
X193502Y573838D01*
X193502Y563462D01*
G37*
G36*
X368500Y678288D02*
X375812Y685600D01*
X386188Y685600D01*
X393500Y678288D01*
X393500Y667912D01*
X386188Y660600D01*
X375812Y660600D01*
X368500Y667912D01*
X368500Y678288D01*
G37*
G36*
X444700Y678288D02*
X452012Y685600D01*
X462388Y685600D01*
X469700Y678288D01*
X469700Y667912D01*
X462388Y660600D01*
X452012Y660600D01*
X444700Y667912D01*
X444700Y678288D01*
G37*
G36*
X462239Y800072D02*
X469551Y792760D01*
X469551Y782384D01*
X462239Y775072D01*
X451863Y775072D01*
X444551Y782384D01*
X444551Y792760D01*
X451863Y800072D01*
X462239Y800072D01*
G37*
G36*
X462239Y723872D02*
X469551Y716560D01*
X469551Y706184D01*
X462239Y698872D01*
X451863Y698872D01*
X444551Y706184D01*
X444551Y716560D01*
X451863Y723872D01*
X462239Y723872D01*
G37*
G36*
X368500Y652888D02*
X375812Y660200D01*
X386188Y660200D01*
X393500Y652888D01*
X393500Y642512D01*
X386188Y635200D01*
X375812Y635200D01*
X368500Y642512D01*
X368500Y652888D01*
G37*
G36*
X444700Y652888D02*
X452012Y660200D01*
X462388Y660200D01*
X469700Y652888D01*
X469700Y642512D01*
X462388Y635200D01*
X452012Y635200D01*
X444700Y642512D01*
X444700Y652888D01*
G37*
G36*
X368500Y627488D02*
X375812Y634800D01*
X386188Y634800D01*
X393500Y627488D01*
X393500Y617112D01*
X386188Y609800D01*
X375812Y609800D01*
X368500Y617112D01*
X368500Y627488D01*
G37*
G36*
X444700Y627488D02*
X452012Y634800D01*
X462388Y634800D01*
X469700Y627488D01*
X469700Y617112D01*
X462388Y609800D01*
X452012Y609800D01*
X444700Y617112D01*
X444700Y627488D01*
G37*
G36*
X368500Y602088D02*
X375812Y609400D01*
X386188Y609400D01*
X393500Y602088D01*
X393500Y591712D01*
X386188Y584400D01*
X375812Y584400D01*
X368500Y591712D01*
X368500Y602088D01*
G37*
G36*
X444700Y602088D02*
X452012Y609400D01*
X462388Y609400D01*
X469700Y602088D01*
X469700Y591712D01*
X462388Y584400D01*
X452012Y584400D01*
X444700Y591712D01*
X444700Y602088D01*
G37*
G36*
X368500Y576688D02*
X375812Y584000D01*
X386188Y584000D01*
X393500Y576688D01*
X393500Y566312D01*
X386188Y559000D01*
X375812Y559000D01*
X368500Y566312D01*
X368500Y576688D01*
G37*
G36*
X444700Y576688D02*
X452012Y584000D01*
X462388Y584000D01*
X469700Y576688D01*
X469700Y566312D01*
X462388Y559000D01*
X452012Y559000D01*
X444700Y566312D01*
X444700Y576688D01*
G37*
G36*
X393900Y853548D02*
X401212Y860860D01*
X411588Y860860D01*
X418900Y853548D01*
X418900Y843172D01*
X411588Y835860D01*
X401212Y835860D01*
X393900Y843172D01*
X393900Y853548D01*
G37*
G36*
X419300Y853548D02*
X426612Y860860D01*
X436988Y860860D01*
X444300Y853548D01*
X444300Y843172D01*
X436988Y835860D01*
X426612Y835860D01*
X419300Y843172D01*
X419300Y853548D01*
G37*
G36*
X256200Y573318D02*
X262342Y579460D01*
X271058Y579460D01*
X277200Y573318D01*
X277200Y564602D01*
X271058Y558460D01*
X262342Y558460D01*
X256200Y564602D01*
X256200Y573318D01*
G37*
G36*
X268900Y586018D02*
X275042Y592160D01*
X283758Y592160D01*
X289900Y586018D01*
X289900Y577302D01*
X283758Y571160D01*
X275042Y571160D01*
X268900Y577302D01*
X268900Y586018D01*
G37*
G36*
X281600Y573318D02*
X287742Y579460D01*
X296458Y579460D01*
X302600Y573318D01*
X302600Y564602D01*
X296458Y558460D01*
X287742Y558460D01*
X281600Y564602D01*
X281600Y573318D01*
G37*
G36*
X218901Y639662D02*
X211589Y632350D01*
X201213Y632350D01*
X193901Y639662D01*
X193901Y650038D01*
X201213Y657350D01*
X211589Y657350D01*
X218901Y650038D01*
X218901Y639662D01*
G37*
G36*
X193502Y639662D02*
X186190Y632350D01*
X175814Y632350D01*
X168502Y639662D01*
X168502Y650038D01*
X175814Y657350D01*
X186190Y657350D01*
X193502Y650038D01*
X193502Y639662D01*
G37*
G36*
X256200Y649518D02*
X262342Y655660D01*
X271058Y655660D01*
X277200Y649518D01*
X277200Y640802D01*
X271058Y634660D01*
X262342Y634660D01*
X256200Y640802D01*
X256200Y649518D01*
G37*
G36*
X268900Y662218D02*
X275042Y668360D01*
X283758Y668360D01*
X289900Y662218D01*
X289900Y653502D01*
X283758Y647360D01*
X275042Y647360D01*
X268900Y653502D01*
X268900Y662218D01*
G37*
G36*
X281600Y649518D02*
X287742Y655660D01*
X296458Y655660D01*
X302600Y649518D01*
X302600Y640802D01*
X296458Y634660D01*
X287742Y634660D01*
X281600Y640802D01*
X281600Y649518D01*
G37*
G36*
X218901Y715862D02*
X211589Y708550D01*
X201213Y708550D01*
X193901Y715862D01*
X193901Y726238D01*
X201213Y733550D01*
X211589Y733550D01*
X218901Y726238D01*
X218901Y715862D01*
G37*
G36*
X193502Y715862D02*
X186190Y708550D01*
X175814Y708550D01*
X168502Y715862D01*
X168502Y726238D01*
X175814Y733550D01*
X186190Y733550D01*
X193502Y726238D01*
X193502Y715862D01*
G37*
G36*
X256200Y725718D02*
X262342Y731860D01*
X271058Y731860D01*
X277200Y725718D01*
X277200Y717002D01*
X271058Y710860D01*
X262342Y710860D01*
X256200Y717002D01*
X256200Y725718D01*
G37*
G36*
X268900Y738418D02*
X275042Y744560D01*
X283758Y744560D01*
X289900Y738418D01*
X289900Y729702D01*
X283758Y723560D01*
X275042Y723560D01*
X268900Y729702D01*
X268900Y738418D01*
G37*
G36*
X281600Y725718D02*
X287742Y731860D01*
X296458Y731860D01*
X302600Y725718D01*
X302600Y717002D01*
X296458Y710860D01*
X287742Y710860D01*
X281600Y717002D01*
X281600Y725718D01*
G37*
G36*
X218901Y792062D02*
X211589Y784750D01*
X201213Y784750D01*
X193901Y792062D01*
X193901Y802438D01*
X201213Y809750D01*
X211589Y809750D01*
X218901Y802438D01*
X218901Y792062D01*
G37*
G36*
X193502Y792062D02*
X186190Y784750D01*
X175814Y784750D01*
X168502Y792062D01*
X168502Y802438D01*
X175814Y809750D01*
X186190Y809750D01*
X193502Y802438D01*
X193502Y792062D01*
G37*
G36*
X256200Y801918D02*
X262342Y808060D01*
X271058Y808060D01*
X277200Y801918D01*
X277200Y793202D01*
X271058Y787060D01*
X262342Y787060D01*
X256200Y793202D01*
X256200Y801918D01*
G37*
G36*
X268900Y814618D02*
X275042Y820760D01*
X283758Y820760D01*
X289900Y814618D01*
X289900Y805902D01*
X283758Y799760D01*
X275042Y799760D01*
X268900Y805902D01*
X268900Y814618D01*
G37*
G36*
X281600Y801918D02*
X287742Y808060D01*
X296458Y808060D01*
X302600Y801918D01*
X302600Y793202D01*
X296458Y787060D01*
X287742Y787060D01*
X281600Y793202D01*
X281600Y801918D01*
G37*
G36*
X218901Y868262D02*
X211589Y860950D01*
X201213Y860950D01*
X193901Y868262D01*
X193901Y878638D01*
X201213Y885950D01*
X211589Y885950D01*
X218901Y878638D01*
X218901Y868262D01*
G37*
G36*
X193502Y868262D02*
X186190Y860950D01*
X175814Y860950D01*
X168502Y868262D01*
X168502Y878638D01*
X175814Y885950D01*
X186190Y885950D01*
X193502Y878638D01*
X193502Y868262D01*
G37*
G36*
X256200Y878118D02*
X262342Y884260D01*
X271058Y884260D01*
X277200Y878118D01*
X277200Y869402D01*
X271058Y863260D01*
X262342Y863260D01*
X256200Y869402D01*
X256200Y878118D01*
G37*
G36*
X268900Y890818D02*
X275042Y896960D01*
X283758Y896960D01*
X289900Y890818D01*
X289900Y882102D01*
X283758Y875960D01*
X275042Y875960D01*
X268900Y882102D01*
X268900Y890818D01*
G37*
G36*
X281600Y878118D02*
X287742Y884260D01*
X296458Y884260D01*
X302600Y878118D01*
X302600Y869402D01*
X296458Y863260D01*
X287742Y863260D01*
X281600Y869402D01*
X281600Y878118D01*
G37*
G36*
X63360Y923945D02*
X76815Y937400D01*
X95905Y937400D01*
X109360Y923945D01*
X109360Y904855D01*
X95905Y891400D01*
X76815Y891400D01*
X63360Y904855D01*
X63360Y923945D01*
G37*
G36*
X469760Y923945D02*
X483215Y937400D01*
X502305Y937400D01*
X515760Y923945D01*
X515760Y904855D01*
X502305Y891400D01*
X483215Y891400D01*
X469760Y904855D01*
X469760Y923945D01*
G37*
G36*
X63360Y441345D02*
X76815Y454800D01*
X95905Y454800D01*
X109360Y441345D01*
X109360Y422255D01*
X95905Y408800D01*
X76815Y408800D01*
X63360Y422255D01*
X63360Y441345D01*
G37*
G36*
X469760Y441345D02*
X483215Y454800D01*
X502305Y454800D01*
X515760Y441345D01*
X515760Y422255D01*
X502305Y408800D01*
X483215Y408800D01*
X469760Y422255D01*
X469760Y441345D01*
G37*
G36*
X142810Y935400D02*
X142810Y893400D01*
X118810Y893400D01*
X118810Y935400D01*
X142810Y935400D01*
G37*
G36*
X168210Y935400D02*
X168210Y893400D01*
X144210Y893400D01*
X144210Y935400D01*
X168210Y935400D01*
G37*
M02*
